<svg width="200" height="45" viewBox="0 0 200 45" fill="none" xmlns="http://www.w3.org/2000/svg">
<path d="M37.3223 42.4275L44.7817 29.4995" stroke="#F2A144" stroke-width="7" stroke-miterlimit="10"/>
<path d="M51.9269 1.00001C60.5428 0.867835 68.1014 8.00509 67.9114 16.6954C68.1014 25.4104 60.5428 32.5476 51.9269 32.3907C43.2201 32.5311 35.802 25.3939 35.9837 16.6954C35.8433 8.00509 43.2614 0.867835 51.9269 1.00001ZM51.9269 5.46905C45.6157 5.46905 41.0062 10.2603 41.0062 16.6706C41.0062 23.0809 45.6157 27.9547 51.9269 27.9547C58.2381 27.9547 62.8889 23.1635 62.8889 16.6954C62.8889 10.3098 58.1885 5.46905 51.9682 5.46905H51.9269Z" fill="#212353"/>
<path d="M0 1.51218H4.88208V13.6306H20.1809V1.51218H25.063V31.9198H20.1809V18.0005H4.88208V31.9198H0V1.51218Z" fill="#212353"/>
<path d="M78.832 1.51218H83.7141V27.5417H97.6251V31.9198H78.832V1.51218Z" fill="#212353"/>
<path d="M136.516 1V31.9198H131.634V12.8459L122.919 24.2704H121.267L112.51 12.7963V31.9198H107.62V1H109.33L122.093 18.0005L134.856 1H136.516Z" fill="#212353"/>
<path d="M149.229 1.51218H169.229V5.88209H154.112V13.6719H165.495V17.9097H154.112V27.5417H169.807V31.9198H149.229V1.51218Z" fill="#212353"/>
<path d="M181.802 23.213C183.826 26.1621 186.271 28.0456 189.774 28.0456C192.904 28.0456 195.027 26.3934 195.027 23.8078C195.027 21.6435 193.731 20.7266 190.558 19.2479L187.188 17.6784C182.769 15.6545 180.084 13.3085 180.084 9.26071C180.084 4.30429 184.421 1 189.675 1C191.645 0.960093 193.592 1.44181 195.317 2.39635C197.042 3.35089 198.484 4.74434 199.497 6.43555L196.085 9.06246C195.42 7.95356 194.483 7.03298 193.363 6.38815C192.242 5.74333 190.975 5.39566 189.683 5.37818C187.097 5.37818 185.073 6.66685 185.073 9.06246C185.255 11.4581 186.312 11.8794 189.311 13.3993L192.723 14.9606C197.679 17.224 200 19.6196 200 23.6261C200 28.9212 195.672 32.4237 189.815 32.4237C187.484 32.4598 185.187 31.8646 183.167 30.7011C181.147 29.5377 179.479 27.8494 178.341 25.8152L181.802 23.213Z" fill="#212353"/>
<path d="M51.9434 9.40941C53.4358 9.1778 54.9606 9.51699 56.2141 10.3594C57.1035 11.014 57.799 11.8973 58.2266 12.9154C58.6542 13.9336 58.798 15.0485 58.6428 16.1419" stroke="#F2A144" stroke-width="6" stroke-miterlimit="10"/>
</svg>
