<svg width="63" height="55" viewBox="0 0 63 55" fill="none" xmlns="http://www.w3.org/2000/svg">
<path d="M49.4846 25.2544C48.3512 17.4317 40.7048 11.3635 31.4736 11.3635C24.3253 11.3635 18.1158 15.0249 15.2808 20.7953C9.70948 22.2544 5.53613 26.8635 5.53613 31.8181C5.53613 38.084 11.3539 43.1817 18.5049 43.1817H21.0986V38.6363H18.5049C14.2148 38.6363 10.7236 35.5772 10.7236 31.8181C10.7236 28.6272 13.8335 25.5522 17.6567 24.9635L19.1637 24.7317L19.6617 23.4635C21.4851 18.8022 26.0112 15.909 31.4736 15.909C38.6246 15.909 44.4424 21.0067 44.4424 27.2726V29.5453H47.0361C49.897 29.5453 52.2236 31.584 52.2236 34.0908C52.2236 36.5976 49.897 38.6363 47.0361 38.6363H41.8486V43.1817H47.0361C52.7579 43.1817 57.4111 39.1044 57.4111 34.0908C57.408 32.0533 56.6255 30.0756 55.1886 28.4737C53.7517 26.8719 51.7433 25.7384 49.4846 25.2544Z" fill="white"/>
<path d="M34.0674 31.8182V22.7273H28.8799V31.8182H21.0986L31.4736 43.1818L41.8486 31.8182H34.0674Z" fill="white"/>
</svg>
