<svg width="30" height="30" viewBox="0 0 30 30" fill="none" xmlns="http://www.w3.org/2000/svg">
<path d="M26.04 4.5H3.96C3.429 4.5 3 4.90219 3 5.4V26.1C3 26.5978 3.429 27 3.96 27H26.04C26.571 27 27 26.5978 27 26.1V5.4C27 4.90219 26.571 4.5 26.04 4.5ZM11.04 20.925C10.377 20.925 9.84 20.4216 9.84 19.8C9.84 19.1784 10.377 18.675 11.04 18.675C11.703 18.675 12.24 19.1784 12.24 19.8C12.24 20.4216 11.703 20.925 11.04 20.925ZM11.04 16.875C10.377 16.875 9.84 16.3716 9.84 15.75C9.84 15.1284 10.377 14.625 11.04 14.625C11.703 14.625 12.24 15.1284 12.24 15.75C12.24 16.3716 11.703 16.875 11.04 16.875ZM11.04 12.825C10.377 12.825 9.84 12.3216 9.84 11.7C9.84 11.0784 10.377 10.575 11.04 10.575C11.703 10.575 12.24 11.0784 12.24 11.7C12.24 12.3216 11.703 12.825 11.04 12.825ZM20.16 20.475C20.16 20.5987 20.052 20.7 19.92 20.7H14.4C14.268 20.7 14.16 20.5987 14.16 20.475V19.125C14.16 19.0012 14.268 18.9 14.4 18.9H19.92C20.052 18.9 20.16 19.0012 20.16 19.125V20.475ZM20.16 16.425C20.16 16.5487 20.052 16.65 19.92 16.65H14.4C14.268 16.65 14.16 16.5487 14.16 16.425V15.075C14.16 14.9513 14.268 14.85 14.4 14.85H19.92C20.052 14.85 20.16 14.9513 20.16 15.075V16.425ZM20.16 12.375C20.16 12.4987 20.052 12.6 19.92 12.6H14.4C14.268 12.6 14.16 12.4987 14.16 12.375V11.025C14.16 10.9012 14.268 10.8 14.4 10.8H19.92C20.052 10.8 20.16 10.9012 20.16 11.025V12.375Z" fill="white"/>
</svg>
