<svg width="30" height="30" viewBox="0 0 30 30" fill="none" xmlns="http://www.w3.org/2000/svg">
<path d="M24.75 3.75H4.75C3.3625 3.75 2.25 5.00156 2.25 6.5625V23.4375C2.25 24.1834 2.51339 24.8988 2.98223 25.4262C3.45107 25.9537 4.08696 26.25 4.75 26.25H24.75C26.1375 26.25 27.25 24.9984 27.25 23.4375V6.5625C27.25 5.81658 26.9866 5.10121 26.5178 4.57376C26.0489 4.04632 25.413 3.75 24.75 3.75ZM18.5 12.1875H13.5V13.5938H17.25C17.9375 13.5938 18.5 14.2266 18.5 15V19.2188C18.5 19.9922 17.9375 20.625 17.25 20.625H16V22.0312H13.5V20.625H11V17.8125H16V16.4062H12.25C11.5625 16.4062 11 15.7734 11 15V10.7812C11 10.0078 11.5625 9.375 12.25 9.375H13.5V7.96875H16V9.375H18.5V12.1875Z" fill="white"/>
</svg>
