<svg width="200" height="200" viewBox="0 0 200 200" fill="none" xmlns="http://www.w3.org/2000/svg">
<path d="M100 0C80.2219 0 60.8879 5.8649 44.443 16.853C27.9981 27.8412 15.1809 43.459 7.61209 61.7316C0.0433283 80.0042 -1.937 100.111 1.92152 119.509C5.78004 138.907 15.3041 156.725 29.2894 170.711C43.2746 184.696 61.0929 194.22 80.491 198.078C99.8891 201.937 119.996 199.957 138.268 192.388C156.541 184.819 172.159 172.002 183.147 155.557C194.135 139.112 200 119.778 200 100C200 73.4783 189.464 48.0429 170.711 29.2893C151.957 10.5357 126.522 0 100 0ZM100 35.7143C106.357 35.7143 112.572 37.5994 117.858 41.1313C123.144 44.6632 127.263 49.6833 129.696 55.5566C132.129 61.4299 132.766 67.8928 131.525 74.1279C130.285 80.363 127.224 86.0903 122.728 90.5856C118.233 95.0808 112.506 98.1421 106.271 99.3824C100.036 100.623 93.5728 99.9861 87.6995 97.5533C81.8261 95.1204 76.8061 91.0006 73.2742 85.7147C69.7423 80.4289 67.8572 74.2144 67.8572 67.8571C67.8478 63.6334 68.6727 59.4495 70.2847 55.5455C71.8967 51.6415 74.264 48.0943 77.2506 45.1077C80.2372 42.1211 83.7844 39.7538 87.6884 38.1418C91.5924 36.5298 95.7763 35.7049 100 35.7143ZM157.143 163.714C141.479 177.874 121.115 185.713 100 185.713C78.8847 185.713 58.5214 177.874 42.8572 163.714V159.571C42.5867 149.791 46.1858 140.3 52.8729 133.158C59.56 126.016 68.7948 121.801 78.5715 121.429H121.429C131.161 121.819 140.352 126.01 147.029 133.101C153.707 140.192 157.338 149.619 157.143 159.357V163.714Z" fill="#212353"/>
</svg>
