<svg width="55" height="55" viewBox="0 0 55 55" fill="none" xmlns="http://www.w3.org/2000/svg">
<path d="M27.5 0C22.061 0 16.7442 1.61285 12.2218 4.63458C7.69948 7.65632 4.17473 11.9512 2.09332 16.9762C0.0119153 22.0012 -0.532676 27.5305 0.528417 32.865C1.58951 38.1995 4.20863 43.0995 8.05457 46.9454C11.9005 50.7914 16.8005 53.4105 22.135 54.4716C27.4695 55.5327 32.9988 54.9881 38.0238 52.9067C43.0488 50.8253 47.3437 47.3005 50.3654 42.7782C53.3872 38.2558 55 32.939 55 27.5C55 20.2065 52.1027 13.2118 46.9454 8.05456C41.7882 2.89731 34.7935 0 27.5 0ZM27.5 9.82143C29.2483 9.82143 30.9572 10.3398 32.4109 11.3111C33.8645 12.2824 34.9974 13.6629 35.6664 15.2781C36.3355 16.8932 36.5105 18.6705 36.1694 20.3852C35.8284 22.0998 34.9865 23.6748 33.7503 24.911C32.5141 26.1472 30.9391 26.9891 29.2245 27.3302C27.5098 27.6712 25.7325 27.4962 24.1174 26.8271C22.5022 26.1581 21.1217 25.0252 20.1504 23.5716C19.1791 22.1179 18.6607 20.409 18.6607 18.6607C18.6581 17.4992 18.885 16.3486 19.3283 15.275C19.7716 14.2014 20.4226 13.2259 21.2439 12.4046C22.0652 11.5833 23.0407 10.9323 24.1143 10.489C25.1879 10.0457 26.3385 9.81884 27.5 9.82143ZM43.2143 45.0214C38.9066 48.9153 33.3067 51.0712 27.5 51.0712C21.6933 51.0712 16.0934 48.9153 11.7857 45.0214V43.8821C11.7113 41.1926 12.7011 38.5824 14.54 36.6184C16.379 34.6544 18.9186 33.4953 21.6072 33.3928H33.3929C36.0693 33.5003 38.5969 34.6527 40.4331 36.6028C42.2693 38.5529 43.2679 41.1452 43.2143 43.8232V45.0214Z" fill="#212353"/>
</svg>
